<svg width="140" height="46" viewBox="0 0 140 46" fill="none" xmlns="http://www.w3.org/2000/svg">
<rect y="0.5" width="140" height="45" rx="8" fill="black"/>
<path d="M34.8693 23.6995C34.8925 22.0012 35.8607 20.3943 37.3966 19.5047C36.4276 18.2011 34.8047 17.3746 33.1163 17.3249C31.3154 17.1468 29.5695 18.34 28.6518 18.34C27.7163 18.34 26.3034 17.3425 24.7819 17.372C22.7987 17.4324 20.9498 18.4946 19.9849 20.128C17.9108 23.5108 19.4579 28.4825 21.4447 31.217C22.4388 32.556 23.6005 34.0517 25.1207 33.9986C26.6082 33.9405 27.1638 33.105 28.9594 33.105C30.7383 33.105 31.2595 33.9986 32.8105 33.9649C34.4067 33.9405 35.4124 32.62 36.3716 31.2683C37.0858 30.3142 37.6354 29.2598 38 28.144C36.1242 27.3966 34.8715 25.6182 34.8693 23.6995Z" fill="white"/>
<path d="M31.9397 15.5265C32.81 14.5423 33.2388 13.2772 33.135 12C31.8053 12.1316 30.5771 12.7302 29.695 13.6767C28.8325 14.6014 28.3836 15.8442 28.4685 17.0727C29.7986 17.0856 31.1062 16.5031 31.9397 15.5265Z" fill="white"/>
<path d="M49.73 17.7V12.16H51.33C51.77 12.16 52.14 12.2233 52.44 12.35C52.74 12.47 52.9833 12.65 53.17 12.89C53.3633 13.1233 53.5 13.41 53.58 13.75C53.6667 14.0833 53.71 14.4633 53.71 14.89C53.71 15.33 53.6633 15.7067 53.57 16.02C53.4833 16.3267 53.37 16.5833 53.23 16.79C53.09 16.9967 52.93 17.16 52.75 17.28C52.5767 17.4 52.4 17.4933 52.22 17.56C52.04 17.62 51.87 17.66 51.71 17.68C51.55 17.6933 51.4167 17.7 51.31 17.7H49.73ZM48.78 11.36V18.5H51.23C51.8233 18.5 52.3367 18.4167 52.77 18.25C53.2033 18.0833 53.56 17.8433 53.84 17.53C54.12 17.21 54.3267 16.82 54.46 16.36C54.5933 15.8933 54.66 15.36 54.66 14.76C54.66 13.6133 54.3633 12.76 53.77 12.2C53.1767 11.64 52.33 11.36 51.23 11.36H48.78ZM56.301 15.92C56.301 15.6067 56.341 15.33 56.421 15.09C56.5077 14.8433 56.6243 14.6367 56.771 14.47C56.9177 14.3033 57.0877 14.1767 57.281 14.09C57.481 14.0033 57.691 13.96 57.911 13.96C58.131 13.96 58.3377 14.0033 58.531 14.09C58.731 14.1767 58.9043 14.3033 59.051 14.47C59.1977 14.6367 59.311 14.8433 59.391 15.09C59.4777 15.33 59.521 15.6067 59.521 15.92C59.521 16.2333 59.4777 16.5133 59.391 16.76C59.311 17 59.1977 17.2033 59.051 17.37C58.9043 17.53 58.731 17.6533 58.531 17.74C58.3377 17.8267 58.131 17.87 57.911 17.87C57.691 17.87 57.481 17.8267 57.281 17.74C57.0877 17.6533 56.9177 17.53 56.771 17.37C56.6243 17.2033 56.5077 17 56.421 16.76C56.341 16.5133 56.301 16.2333 56.301 15.92ZM55.401 15.92C55.401 16.3 55.4543 16.6533 55.561 16.98C55.6677 17.3067 55.8277 17.5933 56.041 17.84C56.2543 18.08 56.5177 18.27 56.831 18.41C57.1443 18.5433 57.5043 18.61 57.911 18.61C58.3243 18.61 58.6843 18.5433 58.991 18.41C59.3043 18.27 59.5677 18.08 59.781 17.84C59.9943 17.5933 60.1543 17.3067 60.261 16.98C60.3677 16.6533 60.421 16.3 60.421 15.92C60.421 15.54 60.3677 15.1867 60.261 14.86C60.1543 14.5267 59.9943 14.24 59.781 14C59.5677 13.7533 59.3043 13.56 58.991 13.42C58.6843 13.28 58.3243 13.21 57.911 13.21C57.5043 13.21 57.1443 13.28 56.831 13.42C56.5177 13.56 56.2543 13.7533 56.041 14C55.8277 14.24 55.6677 14.5267 55.561 14.86C55.4543 15.1867 55.401 15.54 55.401 15.92ZM66.5432 18.5L68.1932 13.33H67.3132L66.1532 17.56H66.1332L65.0532 13.33H64.1232L63.0832 17.56H63.0632L61.8932 13.33H60.9532L62.6132 18.5H63.5332L64.5732 14.39H64.5932L65.6432 18.5H66.5432ZM69.0013 13.33V18.5H69.8513V15.58C69.8513 15.3467 69.8813 15.1333 69.9413 14.94C70.008 14.74 70.1047 14.5667 70.2313 14.42C70.358 14.2733 70.5147 14.16 70.7013 14.08C70.8947 14 71.1213 13.96 71.3813 13.96C71.708 13.96 71.9647 14.0533 72.1513 14.24C72.338 14.4267 72.4313 14.68 72.4313 15V18.5H73.2813V15.1C73.2813 14.82 73.2513 14.5667 73.1913 14.34C73.138 14.1067 73.0413 13.9067 72.9013 13.74C72.7613 13.5733 72.578 13.4433 72.3513 13.35C72.1247 13.2567 71.8413 13.21 71.5013 13.21C70.7347 13.21 70.1747 13.5233 69.8213 14.15H69.8013V13.33H69.0013ZM74.608 11.36V18.5H75.458V11.36H74.608ZM77.3948 15.92C77.3948 15.6067 77.4348 15.33 77.5148 15.09C77.6014 14.8433 77.7181 14.6367 77.8648 14.47C78.0114 14.3033 78.1814 14.1767 78.3748 14.09C78.5748 14.0033 78.7848 13.96 79.0048 13.96C79.2248 13.96 79.4314 14.0033 79.6248 14.09C79.8248 14.1767 79.9981 14.3033 80.1448 14.47C80.2914 14.6367 80.4048 14.8433 80.4848 15.09C80.5714 15.33 80.6148 15.6067 80.6148 15.92C80.6148 16.2333 80.5714 16.5133 80.4848 16.76C80.4048 17 80.2914 17.2033 80.1448 17.37C79.9981 17.53 79.8248 17.6533 79.6248 17.74C79.4314 17.8267 79.2248 17.87 79.0048 17.87C78.7848 17.87 78.5748 17.8267 78.3748 17.74C78.1814 17.6533 78.0114 17.53 77.8648 17.37C77.7181 17.2033 77.6014 17 77.5148 16.76C77.4348 16.5133 77.3948 16.2333 77.3948 15.92ZM76.4948 15.92C76.4948 16.3 76.5481 16.6533 76.6548 16.98C76.7614 17.3067 76.9214 17.5933 77.1348 17.84C77.3481 18.08 77.6114 18.27 77.9248 18.41C78.2381 18.5433 78.5981 18.61 79.0048 18.61C79.4181 18.61 79.7781 18.5433 80.0848 18.41C80.3981 18.27 80.6614 18.08 80.8748 17.84C81.0881 17.5933 81.2481 17.3067 81.3548 16.98C81.4614 16.6533 81.5148 16.3 81.5148 15.92C81.5148 15.54 81.4614 15.1867 81.3548 14.86C81.2481 14.5267 81.0881 14.24 80.8748 14C80.6614 13.7533 80.3981 13.56 80.0848 13.42C79.7781 13.28 79.4181 13.21 79.0048 13.21C78.5981 13.21 78.2381 13.28 77.9248 13.42C77.6114 13.56 77.3481 13.7533 77.1348 14C76.9214 14.24 76.7614 14.5267 76.6548 14.86C76.5481 15.1867 76.4948 15.54 76.4948 15.92ZM87.097 18.48C86.9503 18.5667 86.747 18.61 86.487 18.61C86.267 18.61 86.0903 18.55 85.957 18.43C85.8303 18.3033 85.767 18.1 85.767 17.82C85.5336 18.1 85.2603 18.3033 84.947 18.43C84.6403 18.55 84.307 18.61 83.947 18.61C83.7136 18.61 83.4903 18.5833 83.277 18.53C83.0703 18.4767 82.8903 18.3933 82.737 18.28C82.5836 18.1667 82.4603 18.02 82.367 17.84C82.2803 17.6533 82.237 17.43 82.237 17.17C82.237 16.8767 82.287 16.6367 82.387 16.45C82.487 16.2633 82.617 16.1133 82.777 16C82.9436 15.88 83.1303 15.79 83.337 15.73C83.5503 15.67 83.767 15.62 83.987 15.58C84.2203 15.5333 84.4403 15.5 84.647 15.48C84.8603 15.4533 85.047 15.42 85.207 15.38C85.367 15.3333 85.4936 15.27 85.587 15.19C85.6803 15.1033 85.727 14.98 85.727 14.82C85.727 14.6333 85.6903 14.4833 85.617 14.37C85.5503 14.2567 85.4603 14.17 85.347 14.11C85.2403 14.05 85.117 14.01 84.977 13.99C84.8436 13.97 84.7103 13.96 84.577 13.96C84.217 13.96 83.917 14.03 83.677 14.17C83.437 14.3033 83.307 14.56 83.287 14.94H82.437C82.4503 14.62 82.517 14.35 82.637 14.13C82.757 13.91 82.917 13.7333 83.117 13.6C83.317 13.46 83.5436 13.36 83.797 13.3C84.057 13.24 84.3336 13.21 84.627 13.21C84.8603 13.21 85.0903 13.2267 85.317 13.26C85.5503 13.2933 85.7603 13.3633 85.947 13.47C86.1336 13.57 86.2836 13.7133 86.397 13.9C86.5103 14.0867 86.567 14.33 86.567 14.63V17.29C86.567 17.49 86.577 17.6367 86.597 17.73C86.6236 17.8233 86.7036 17.87 86.837 17.87C86.9103 17.87 86.997 17.8533 87.097 17.82V18.48ZM85.717 15.83C85.6103 15.91 85.4703 15.97 85.297 16.01C85.1236 16.0433 84.9403 16.0733 84.747 16.1C84.5603 16.12 84.3703 16.1467 84.177 16.18C83.9836 16.2067 83.8103 16.2533 83.657 16.32C83.5036 16.3867 83.377 16.4833 83.277 16.61C83.1836 16.73 83.137 16.8967 83.137 17.11C83.137 17.25 83.1636 17.37 83.217 17.47C83.277 17.5633 83.3503 17.64 83.437 17.7C83.5303 17.76 83.637 17.8033 83.757 17.83C83.877 17.8567 84.0036 17.87 84.137 17.87C84.417 17.87 84.657 17.8333 84.857 17.76C85.057 17.68 85.2203 17.5833 85.347 17.47C85.4736 17.35 85.567 17.2233 85.627 17.09C85.687 16.95 85.717 16.82 85.717 16.7V15.83ZM88.508 15.96C88.508 15.7067 88.5347 15.46 88.588 15.22C88.6414 14.98 88.728 14.7667 88.848 14.58C88.968 14.3933 89.128 14.2433 89.328 14.13C89.528 14.0167 89.7714 13.96 90.058 13.96C90.3514 13.96 90.6014 14.0167 90.808 14.13C91.0147 14.2367 91.1814 14.38 91.308 14.56C91.4414 14.74 91.538 14.95 91.598 15.19C91.658 15.4233 91.688 15.6667 91.688 15.92C91.688 16.16 91.658 16.3967 91.598 16.63C91.5447 16.8633 91.4547 17.0733 91.328 17.26C91.2014 17.44 91.038 17.5867 90.838 17.7C90.638 17.8133 90.3947 17.87 90.108 17.87C89.8347 17.87 89.5947 17.8167 89.388 17.71C89.188 17.6033 89.0214 17.46 88.888 17.28C88.7614 17.1 88.6647 16.8967 88.598 16.67C88.538 16.4367 88.508 16.2 88.508 15.96ZM92.508 18.5V11.36H91.658V14.02H91.638C91.5447 13.8667 91.428 13.74 91.288 13.64C91.1547 13.5333 91.0114 13.45 90.858 13.39C90.7047 13.3233 90.5514 13.2767 90.398 13.25C90.2447 13.2233 90.1014 13.21 89.968 13.21C89.5747 13.21 89.228 13.2833 88.928 13.43C88.6347 13.57 88.388 13.7633 88.188 14.01C87.9947 14.25 87.848 14.5333 87.748 14.86C87.6547 15.1867 87.608 15.5333 87.608 15.9C87.608 16.2667 87.658 16.6133 87.758 16.94C87.858 17.2667 88.0047 17.5533 88.198 17.8C88.398 18.0467 88.6447 18.2433 88.938 18.39C89.238 18.5367 89.588 18.61 89.988 18.61C90.348 18.61 90.678 18.5467 90.978 18.42C91.278 18.2933 91.498 18.0867 91.638 17.8H91.658V18.5H92.508ZM97.219 15.92C97.219 15.6067 97.259 15.33 97.339 15.09C97.4257 14.8433 97.5423 14.6367 97.689 14.47C97.8357 14.3033 98.0057 14.1767 98.199 14.09C98.399 14.0033 98.609 13.96 98.829 13.96C99.049 13.96 99.2557 14.0033 99.449 14.09C99.649 14.1767 99.8223 14.3033 99.969 14.47C100.116 14.6367 100.229 14.8433 100.309 15.09C100.396 15.33 100.439 15.6067 100.439 15.92C100.439 16.2333 100.396 16.5133 100.309 16.76C100.229 17 100.116 17.2033 99.969 17.37C99.8223 17.53 99.649 17.6533 99.449 17.74C99.2557 17.8267 99.049 17.87 98.829 17.87C98.609 17.87 98.399 17.8267 98.199 17.74C98.0057 17.6533 97.8357 17.53 97.689 17.37C97.5423 17.2033 97.4257 17 97.339 16.76C97.259 16.5133 97.219 16.2333 97.219 15.92ZM96.319 15.92C96.319 16.3 96.3723 16.6533 96.479 16.98C96.5857 17.3067 96.7457 17.5933 96.959 17.84C97.1723 18.08 97.4357 18.27 97.749 18.41C98.0623 18.5433 98.4223 18.61 98.829 18.61C99.2423 18.61 99.6023 18.5433 99.909 18.41C100.222 18.27 100.486 18.08 100.699 17.84C100.912 17.5933 101.072 17.3067 101.179 16.98C101.286 16.6533 101.339 16.3 101.339 15.92C101.339 15.54 101.286 15.1867 101.179 14.86C101.072 14.5267 100.912 14.24 100.699 14C100.486 13.7533 100.222 13.56 99.909 13.42C99.6023 13.28 99.2423 13.21 98.829 13.21C98.4223 13.21 98.0623 13.28 97.749 13.42C97.4357 13.56 97.1723 13.7533 96.959 14C96.7457 14.24 96.5857 14.5267 96.479 14.86C96.3723 15.1867 96.319 15.54 96.319 15.92ZM102.341 13.33V18.5H103.191V15.58C103.191 15.3467 103.221 15.1333 103.281 14.94C103.348 14.74 103.445 14.5667 103.571 14.42C103.698 14.2733 103.855 14.16 104.041 14.08C104.235 14 104.461 13.96 104.721 13.96C105.048 13.96 105.305 14.0533 105.491 14.24C105.678 14.4267 105.771 14.68 105.771 15V18.5H106.621V15.1C106.621 14.82 106.591 14.5667 106.531 14.34C106.478 14.1067 106.381 13.9067 106.241 13.74C106.101 13.5733 105.918 13.4433 105.691 13.35C105.465 13.2567 105.181 13.21 104.841 13.21C104.075 13.21 103.515 13.5233 103.161 14.15H103.141V13.33H102.341ZM111.861 13.33V11.78H111.011V13.33H110.131V14.08H111.011V17.37C111.011 17.61 111.034 17.8033 111.081 17.95C111.128 18.0967 111.198 18.21 111.291 18.29C111.391 18.37 111.518 18.4267 111.671 18.46C111.831 18.4867 112.021 18.5 112.241 18.5H112.891V17.75H112.501C112.368 17.75 112.258 17.7467 112.171 17.74C112.091 17.7267 112.028 17.7033 111.981 17.67C111.934 17.6367 111.901 17.59 111.881 17.53C111.868 17.47 111.861 17.39 111.861 17.29V14.08H112.891V13.33H111.861ZM113.835 11.36V18.5H114.685V15.58C114.685 15.3467 114.715 15.1333 114.775 14.94C114.842 14.74 114.939 14.5667 115.065 14.42C115.192 14.2733 115.349 14.16 115.535 14.08C115.729 14 115.955 13.96 116.215 13.96C116.542 13.96 116.799 14.0533 116.985 14.24C117.172 14.4267 117.265 14.68 117.265 15V18.5H118.115V15.1C118.115 14.82 118.085 14.5667 118.025 14.34C117.972 14.1067 117.875 13.9067 117.735 13.74C117.595 13.5733 117.412 13.4433 117.185 13.35C116.959 13.2567 116.675 13.21 116.335 13.21C116.182 13.21 116.022 13.2267 115.855 13.26C115.695 13.2933 115.539 13.3467 115.385 13.42C115.239 13.4867 115.105 13.5767 114.985 13.69C114.865 13.7967 114.772 13.93 114.705 14.09H114.685V11.36H113.835ZM122.982 15.42H120.012C120.025 15.22 120.069 15.0333 120.142 14.86C120.215 14.68 120.315 14.5233 120.442 14.39C120.569 14.2567 120.719 14.1533 120.892 14.08C121.072 14 121.272 13.96 121.492 13.96C121.705 13.96 121.899 14 122.072 14.08C122.252 14.1533 122.405 14.2567 122.532 14.39C122.665 14.5167 122.769 14.67 122.842 14.85C122.922 15.03 122.969 15.22 122.982 15.42ZM123.802 16.86H122.962C122.889 17.2 122.735 17.4533 122.502 17.62C122.275 17.7867 121.982 17.87 121.622 17.87C121.342 17.87 121.099 17.8233 120.892 17.73C120.685 17.6367 120.515 17.5133 120.382 17.36C120.249 17.2 120.152 17.02 120.092 16.82C120.032 16.6133 120.005 16.3967 120.012 16.17H123.882C123.895 15.8567 123.865 15.5267 123.792 15.18C123.725 14.8333 123.599 14.5133 123.412 14.22C123.232 13.9267 122.989 13.6867 122.682 13.5C122.382 13.3067 122.002 13.21 121.542 13.21C121.189 13.21 120.862 13.2767 120.562 13.41C120.269 13.5433 120.012 13.73 119.792 13.97C119.579 14.21 119.412 14.4933 119.292 14.82C119.172 15.1467 119.112 15.5067 119.112 15.9C119.125 16.2933 119.182 16.6567 119.282 16.99C119.389 17.3233 119.545 17.61 119.752 17.85C119.959 18.09 120.212 18.2767 120.512 18.41C120.819 18.5433 121.179 18.61 121.592 18.61C122.179 18.61 122.665 18.4633 123.052 18.17C123.439 17.8767 123.689 17.44 123.802 16.86Z" fill="white"/>
<path d="M51.738 24.504H53.6L57.45 34.5H55.574L54.636 31.854H50.646L49.708 34.5H47.902L51.738 24.504ZM51.122 30.524H54.174L52.676 26.226H52.634L51.122 30.524ZM58.2199 27.262H59.7319V28.242H59.7599C59.9839 27.822 60.2966 27.5233 60.6979 27.346C61.0992 27.1593 61.5332 27.066 61.9999 27.066C62.5692 27.066 63.0639 27.1687 63.4839 27.374C63.9132 27.57 64.2679 27.8453 64.5479 28.2C64.8279 28.5453 65.0379 28.9513 65.1779 29.418C65.3179 29.8847 65.3879 30.384 65.3879 30.916C65.3879 31.4013 65.3226 31.8727 65.1919 32.33C65.0706 32.7873 64.8792 33.1933 64.6179 33.548C64.3659 33.8933 64.0439 34.1733 63.6519 34.388C63.2599 34.5933 62.7979 34.696 62.2659 34.696C62.0326 34.696 61.7992 34.6727 61.5659 34.626C61.3326 34.5887 61.1086 34.5233 60.8939 34.43C60.6792 34.3367 60.4786 34.22 60.2919 34.08C60.1146 33.9307 59.9652 33.758 59.8439 33.562H59.8159V37.174H58.2199V27.262ZM63.7919 30.888C63.7919 30.5613 63.7499 30.244 63.6659 29.936C63.5819 29.628 63.4559 29.3573 63.2879 29.124C63.1199 28.8813 62.9099 28.69 62.6579 28.55C62.4059 28.4007 62.1166 28.326 61.7899 28.326C61.1179 28.326 60.6092 28.5593 60.2639 29.026C59.9279 29.4927 59.7599 30.1133 59.7599 30.888C59.7599 31.252 59.8019 31.5927 59.8859 31.91C59.9792 32.218 60.1146 32.484 60.2919 32.708C60.4692 32.932 60.6792 33.1093 60.9219 33.24C61.1739 33.3707 61.4632 33.436 61.7899 33.436C62.1539 33.436 62.4619 33.3613 62.7139 33.212C62.9659 33.0627 63.1712 32.8713 63.3299 32.638C63.4979 32.3953 63.6146 32.1247 63.6799 31.826C63.7546 31.518 63.7919 31.2053 63.7919 30.888ZM66.7785 27.262H68.2905V28.242H68.3185C68.5425 27.822 68.8552 27.5233 69.2565 27.346C69.6578 27.1593 70.0918 27.066 70.5585 27.066C71.1278 27.066 71.6225 27.1687 72.0425 27.374C72.4718 27.57 72.8265 27.8453 73.1065 28.2C73.3865 28.5453 73.5965 28.9513 73.7365 29.418C73.8765 29.8847 73.9465 30.384 73.9465 30.916C73.9465 31.4013 73.8812 31.8727 73.7505 32.33C73.6292 32.7873 73.4378 33.1933 73.1765 33.548C72.9245 33.8933 72.6025 34.1733 72.2105 34.388C71.8185 34.5933 71.3565 34.696 70.8245 34.696C70.5912 34.696 70.3578 34.6727 70.1245 34.626C69.8912 34.5887 69.6672 34.5233 69.4525 34.43C69.2378 34.3367 69.0372 34.22 68.8505 34.08C68.6732 33.9307 68.5238 33.758 68.4025 33.562H68.3745V37.174H66.7785V27.262ZM72.3505 30.888C72.3505 30.5613 72.3085 30.244 72.2245 29.936C72.1405 29.628 72.0145 29.3573 71.8465 29.124C71.6785 28.8813 71.4685 28.69 71.2165 28.55C70.9645 28.4007 70.6752 28.326 70.3485 28.326C69.6765 28.326 69.1678 28.5593 68.8225 29.026C68.4865 29.4927 68.3185 30.1133 68.3185 30.888C68.3185 31.252 68.3605 31.5927 68.4445 31.91C68.5378 32.218 68.6732 32.484 68.8505 32.708C69.0278 32.932 69.2378 33.1093 69.4805 33.24C69.7325 33.3707 70.0218 33.436 70.3485 33.436C70.7125 33.436 71.0205 33.3613 71.2725 33.212C71.5245 33.0627 71.7298 32.8713 71.8885 32.638C72.0565 32.3953 72.1732 32.1247 72.2385 31.826C72.3132 31.518 72.3505 31.2053 72.3505 30.888ZM80.5636 31.168C80.5636 31.5507 80.6289 31.8773 80.7596 32.148C80.8902 32.4187 81.0722 32.6427 81.3056 32.82C81.5389 32.988 81.8049 33.114 82.1036 33.198C82.4116 33.2727 82.7429 33.31 83.0976 33.31C83.4802 33.31 83.8069 33.268 84.0776 33.184C84.3482 33.0907 84.5676 32.974 84.7356 32.834C84.9036 32.694 85.0249 32.5353 85.0996 32.358C85.1742 32.1713 85.2116 31.9847 85.2116 31.798C85.2116 31.4153 85.1229 31.1353 84.9456 30.958C84.7776 30.7713 84.5909 30.6407 84.3856 30.566C84.0309 30.4353 83.6156 30.314 83.1396 30.202C82.6729 30.0807 82.0942 29.9267 81.4036 29.74C80.9742 29.628 80.6149 29.4833 80.3256 29.306C80.0456 29.1193 79.8216 28.914 79.6536 28.69C79.4856 28.466 79.3642 28.228 79.2896 27.976C79.2242 27.724 79.1916 27.4673 79.1916 27.206C79.1916 26.702 79.2942 26.268 79.4996 25.904C79.7142 25.5307 79.9942 25.2227 80.3396 24.98C80.6849 24.7373 81.0769 24.56 81.5156 24.448C81.9542 24.3267 82.3976 24.266 82.8456 24.266C83.3682 24.266 83.8582 24.336 84.3156 24.476C84.7822 24.6067 85.1882 24.8073 85.5336 25.078C85.8882 25.3487 86.1682 25.6847 86.3736 26.086C86.5789 26.478 86.6816 26.9353 86.6816 27.458H84.9316C84.8849 26.814 84.6656 26.3613 84.2736 26.1C83.8816 25.8293 83.3822 25.694 82.7756 25.694C82.5702 25.694 82.3602 25.7173 82.1456 25.764C81.9309 25.8013 81.7349 25.8713 81.5576 25.974C81.3802 26.0673 81.2309 26.198 81.1096 26.366C80.9976 26.534 80.9416 26.744 80.9416 26.996C80.9416 27.3507 81.0489 27.6307 81.2636 27.836C81.4876 28.032 81.7769 28.1813 82.1316 28.284C82.1689 28.2933 82.3136 28.3353 82.5656 28.41C82.8269 28.4753 83.1162 28.55 83.4336 28.634C83.7509 28.718 84.0589 28.802 84.3576 28.886C84.6656 28.9607 84.8849 29.0167 85.0156 29.054C85.3422 29.1567 85.6269 29.2967 85.8696 29.474C86.1122 29.6513 86.3129 29.8567 86.4716 30.09C86.6396 30.314 86.7609 30.5567 86.8356 30.818C86.9196 31.0793 86.9616 31.3407 86.9616 31.602C86.9616 32.162 86.8449 32.6427 86.6116 33.044C86.3876 33.436 86.0889 33.758 85.7156 34.01C85.3422 34.262 84.9176 34.444 84.4416 34.556C83.9656 34.6773 83.4802 34.738 82.9856 34.738C82.4162 34.738 81.8796 34.668 81.3756 34.528C80.8716 34.388 80.4329 34.1733 80.0596 33.884C79.6862 33.5947 79.3876 33.226 79.1636 32.778C78.9396 32.3207 78.8229 31.784 78.8136 31.168H80.5636ZM87.5417 27.262H88.7457V25.092H90.3417V27.262H91.7837V28.452H90.3417V32.316C90.3417 32.484 90.3464 32.6287 90.3557 32.75C90.3744 32.8713 90.407 32.974 90.4537 33.058C90.5097 33.142 90.589 33.2073 90.6917 33.254C90.7944 33.2913 90.9344 33.31 91.1117 33.31C91.2237 33.31 91.3357 33.31 91.4477 33.31C91.5597 33.3007 91.6717 33.282 91.7837 33.254V34.486C91.6064 34.5047 91.4337 34.5233 91.2657 34.542C91.0977 34.5607 90.925 34.57 90.7477 34.57C90.3277 34.57 89.987 34.5327 89.7257 34.458C89.4737 34.374 89.273 34.2573 89.1237 34.108C88.9837 33.9493 88.8857 33.7533 88.8297 33.52C88.783 33.2867 88.755 33.0207 88.7457 32.722V28.452H87.5417V27.262ZM96.2498 34.696C95.6711 34.696 95.1531 34.6027 94.6958 34.416C94.2478 34.22 93.8651 33.954 93.5478 33.618C93.2398 33.282 93.0018 32.8807 92.8338 32.414C92.6751 31.9473 92.5958 31.434 92.5958 30.874C92.5958 30.3233 92.6751 29.8147 92.8338 29.348C93.0018 28.8813 93.2398 28.48 93.5478 28.144C93.8651 27.808 94.2478 27.5467 94.6958 27.36C95.1531 27.164 95.6711 27.066 96.2498 27.066C96.8285 27.066 97.3418 27.164 97.7898 27.36C98.2471 27.5467 98.6298 27.808 98.9378 28.144C99.2551 28.48 99.4931 28.8813 99.6518 29.348C99.8198 29.8147 99.9038 30.3233 99.9038 30.874C99.9038 31.434 99.8198 31.9473 99.6518 32.414C99.4931 32.8807 99.2551 33.282 98.9378 33.618C98.6298 33.954 98.2471 34.22 97.7898 34.416C97.3418 34.6027 96.8285 34.696 96.2498 34.696ZM96.2498 33.436C96.6045 33.436 96.9125 33.3613 97.1738 33.212C97.4351 33.0627 97.6498 32.8667 97.8178 32.624C97.9858 32.3813 98.1071 32.1107 98.1818 31.812C98.2658 31.504 98.3078 31.1913 98.3078 30.874C98.3078 30.566 98.2658 30.258 98.1818 29.95C98.1071 29.642 97.9858 29.3713 97.8178 29.138C97.6498 28.8953 97.4351 28.6993 97.1738 28.55C96.9125 28.4007 96.6045 28.326 96.2498 28.326C95.8951 28.326 95.5871 28.4007 95.3258 28.55C95.0645 28.6993 94.8498 28.8953 94.6818 29.138C94.5138 29.3713 94.3878 29.642 94.3038 29.95C94.2291 30.258 94.1918 30.566 94.1918 30.874C94.1918 31.1913 94.2291 31.504 94.3038 31.812C94.3878 32.1107 94.5138 32.3813 94.6818 32.624C94.8498 32.8667 95.0645 33.0627 95.3258 33.212C95.5871 33.3613 95.8951 33.436 96.2498 33.436ZM101.231 27.262H102.729V28.662H102.757C102.803 28.466 102.892 28.2747 103.023 28.088C103.163 27.9013 103.326 27.7333 103.513 27.584C103.709 27.4253 103.923 27.2993 104.157 27.206C104.39 27.1127 104.628 27.066 104.871 27.066C105.057 27.066 105.183 27.0707 105.249 27.08C105.323 27.0893 105.398 27.0987 105.473 27.108V28.648C105.361 28.6293 105.244 28.6153 105.123 28.606C105.011 28.5873 104.899 28.578 104.787 28.578C104.516 28.578 104.259 28.634 104.017 28.746C103.783 28.8487 103.578 29.0073 103.401 29.222C103.223 29.4273 103.083 29.684 102.981 29.992C102.878 30.3 102.827 30.6547 102.827 31.056V34.5H101.231V27.262ZM110.876 30.244C110.858 29.992 110.802 29.7493 110.708 29.516C110.624 29.2827 110.503 29.082 110.344 28.914C110.195 28.7367 110.008 28.5967 109.784 28.494C109.57 28.382 109.327 28.326 109.056 28.326C108.776 28.326 108.52 28.3773 108.286 28.48C108.062 28.5733 107.866 28.7087 107.698 28.886C107.54 29.054 107.409 29.2547 107.306 29.488C107.213 29.7213 107.162 29.9733 107.152 30.244H110.876ZM107.152 31.294C107.152 31.574 107.19 31.8447 107.264 32.106C107.348 32.3673 107.47 32.596 107.628 32.792C107.787 32.988 107.988 33.1467 108.23 33.268C108.473 33.38 108.762 33.436 109.098 33.436C109.565 33.436 109.938 33.338 110.218 33.142C110.508 32.9367 110.722 32.6333 110.862 32.232H112.374C112.29 32.624 112.146 32.974 111.94 33.282C111.735 33.59 111.488 33.8513 111.198 34.066C110.909 34.2713 110.582 34.4253 110.218 34.528C109.864 34.64 109.49 34.696 109.098 34.696C108.529 34.696 108.025 34.6027 107.586 34.416C107.148 34.2293 106.774 33.968 106.466 33.632C106.168 33.296 105.939 32.8947 105.78 32.428C105.631 31.9613 105.556 31.448 105.556 30.888C105.556 30.3747 105.636 29.8893 105.794 29.432C105.962 28.9653 106.196 28.5593 106.494 28.214C106.802 27.8593 107.171 27.5793 107.6 27.374C108.03 27.1687 108.515 27.066 109.056 27.066C109.626 27.066 110.134 27.1873 110.582 27.43C111.04 27.6633 111.418 27.976 111.716 28.368C112.015 28.76 112.23 29.2127 112.36 29.726C112.5 30.23 112.538 30.7527 112.472 31.294H107.152Z" fill="white"/>
</svg>
