<svg fill="none" height="512" viewBox="0 0 512 512" width="512" xmlns="http://www.w3.org/2000/svg"><path d="m32 416h448v-320h-448z" fill="#ffe70e"/><path d="m32 416h448v-104h-448z" fill="#e92b2b"/><path d="m32 200h448v-104h-448z" fill="#32ab45"/><path d="m360 256c0 57.438-46.562 104-104 104s-104-46.562-104-104 46.562-104 104-104 104 46.562 104 104z" fill="#2a2faf"/><path clip-rule="evenodd" d="m255.997 170.453 16.708 54.069 28.175-35.028 6.234 5.014-27.658 34.385h52.366l-43.088 32.917 40.602 14.422-2.678 7.539-40.039-14.223 16.449 53.229-43.071-32.903v38.127h-8v-38.127l-43.071 32.903 16.449-53.229-40.039 14.223-2.678-7.539 40.603-14.422-43.089-32.917h52.366l-27.658-34.385 6.234-5.014 28.175 35.028zm-20.531 66.44-6.043 19.557-25.601-19.557zm.731 24.732 7.642-24.732h24.316l7.642 24.732-19.8 15.126zm-2.517 8.144 15.728 12.016-25.449 19.441zm28.906 12.016 15.728-12.016 9.721 31.457zm19.986-25.335-6.044-19.557h31.644zm-16.889-27.557h-19.372l9.686-31.343z" fill="#ffe70e" fill-rule="evenodd"/></svg>