<svg width="862" height="127" viewBox="0 0 862 127" fill="none" xmlns="http://www.w3.org/2000/svg">
<path d="M824.168 126.044H0V107.175H10.8229V99.8004H27.3924V53.1567H73.7489V55.8384H91.4678V78.7293H103.727V13.6004H120.01V16.6653H128.246V0H157.746V14.8456H185.043V33.2349H206.114V70.7798H214.734V45.5902H245.862V48.9424H257.451V79.304H264.826V56.892H282.066V59.9569C282.066 59.9569 295.187 60.0527 294.996 59.9569C294.9 59.8611 294.996 55.0722 294.996 55.0722H307.255V58.7118H313.193V100.088H318.748V77.2927H333.498V49.4213H354.665V44.1536H367.499V40.1309H377.748V44.824H386.942V48.5593H398.531V81.6027H403.224V23.3698H412.898V16.0907H442.014V9.38622H461.457V16.2822L470.748 25.5727H481.571V94.82H487.509V81.6027H498.619V85.8169H508.772V75.6644H516.721V82.3689H526.299V76.3349H541.049V84.1887H552.542V90.7016H556.086V64.3627H562.311V85.0507H568.154V88.4029H574.475V55.5511H580.126V86.2H587.501V42.8127H606.273V33.618H614.127V45.3987H628.015V55.2638H641.807V95.7778H649.469V76.718H676.574V35.2462H685.194V33.5222H677.915V30.17H688.068V26.8178H694.485C694.485 26.8178 694.293 29.7869 694.485 29.7869C694.676 29.7869 708.277 29.7869 708.277 29.7869V25.0938H710.192V17.8147H719.004L724.272 26.5304V98.268H758.464V51.8158H763.924V46.3564H775.704V43.7704H805.012V50.4749H809.035V104.972H826.371V87.3493H837.577V74.8982H843.802V69.6304H850.411V83.8056H854.817V110.719H861.904V126.139H824.168V126.044Z" fill="#00b53f"/>
</svg>
