<svg width="148" height="46" viewBox="0 0 148 46" fill="none" xmlns="http://www.w3.org/2000/svg">
<rect y="0.5" width="148" height="45" rx="8" fill="black"/>
<g filter="url(#filter0_ii_702_31)">
<path d="M18.401 13.3086C18.149 13.5481 18 13.9198 18 14.4011V31.598C18 32.0801 18.149 32.451 18.401 32.6905L18.4651 32.7465L29.1963 23.1131V22.9996V22.886L18.4651 13.2519L18.401 13.3086Z" fill="url(#paint0_linear_702_31)"/>
<path d="M32.7727 26.3253L29.1963 23.1132V22.9996V22.8861L32.7736 19.6747L32.8542 19.7159L37.0924 21.8776C38.3025 22.495 38.3025 23.5051 37.0924 24.1232L32.8542 26.2849L32.7727 26.3253Z" fill="url(#paint1_linear_702_31)"/>
<g filter="url(#filter1_i_702_31)">
<path d="M32.8539 26.2843L29.1951 22.9998L18.4007 32.6908C18.7991 33.0702 19.4583 33.1169 20.2006 32.739L32.8539 26.2843Z" fill="url(#paint2_linear_702_31)"/>
</g>
<path d="M32.8539 19.7152L20.2006 13.2613C19.4583 12.8826 18.7991 12.9301 18.4007 13.3095L29.196 23.0005L32.8539 19.7152Z" fill="url(#paint3_linear_702_31)"/>
</g>
<path d="M54.12 17.61L54.37 18.5H54.97V14.74H51.84V15.54H54.12C54.1333 15.8667 54.09 16.1733 53.99 16.46C53.89 16.74 53.74 16.9867 53.54 17.2C53.3467 17.4067 53.1067 17.57 52.82 17.69C52.5333 17.81 52.2033 17.87 51.83 17.87C51.43 17.87 51.0767 17.7933 50.77 17.64C50.47 17.48 50.2167 17.27 50.01 17.01C49.8033 16.7433 49.6467 16.44 49.54 16.1C49.4333 15.7533 49.38 15.3933 49.38 15.02C49.38 14.64 49.4267 14.27 49.52 13.91C49.6133 13.5433 49.7567 13.22 49.95 12.94C50.15 12.6533 50.4033 12.4233 50.71 12.25C51.0233 12.0767 51.3967 11.99 51.83 11.99C52.0967 11.99 52.3467 12.0233 52.58 12.09C52.82 12.15 53.0333 12.2433 53.22 12.37C53.4067 12.4967 53.5633 12.66 53.69 12.86C53.8167 13.0533 53.9033 13.2867 53.95 13.56H54.9C54.8333 13.14 54.7067 12.7833 54.52 12.49C54.34 12.19 54.1133 11.9433 53.84 11.75C53.5733 11.5567 53.2667 11.4167 52.92 11.33C52.58 11.2367 52.2167 11.19 51.83 11.19C51.2633 11.19 50.7667 11.2967 50.34 11.51C49.92 11.7167 49.5667 11.9967 49.28 12.35C49 12.7033 48.7867 13.1167 48.64 13.59C48.5 14.0567 48.43 14.55 48.43 15.07C48.43 15.5367 48.5067 15.9867 48.66 16.42C48.8133 16.8533 49.0367 17.2367 49.33 17.57C49.6233 17.9033 49.98 18.17 50.4 18.37C50.82 18.5633 51.2967 18.66 51.83 18.66C52.25 18.66 52.6667 18.58 53.08 18.42C53.4933 18.2533 53.84 17.9833 54.12 17.61ZM59.8179 15.42H56.8479C56.8612 15.22 56.9046 15.0333 56.9779 14.86C57.0512 14.68 57.1512 14.5233 57.2779 14.39C57.4046 14.2567 57.5546 14.1533 57.7279 14.08C57.9079 14 58.1079 13.96 58.3279 13.96C58.5412 13.96 58.7346 14 58.9079 14.08C59.0879 14.1533 59.2412 14.2567 59.3679 14.39C59.5012 14.5167 59.6046 14.67 59.6779 14.85C59.7579 15.03 59.8046 15.22 59.8179 15.42ZM60.6379 16.86H59.7979C59.7246 17.2 59.5712 17.4533 59.3379 17.62C59.1112 17.7867 58.8179 17.87 58.4579 17.87C58.1779 17.87 57.9346 17.8233 57.7279 17.73C57.5212 17.6367 57.3512 17.5133 57.2179 17.36C57.0846 17.2 56.9879 17.02 56.9279 16.82C56.8679 16.6133 56.8412 16.3967 56.8479 16.17H60.7179C60.7312 15.8567 60.7012 15.5267 60.6279 15.18C60.5612 14.8333 60.4346 14.5133 60.2479 14.22C60.0679 13.9267 59.8246 13.6867 59.5179 13.5C59.2179 13.3067 58.8379 13.21 58.3779 13.21C58.0246 13.21 57.6979 13.2767 57.3979 13.41C57.1046 13.5433 56.8479 13.73 56.6279 13.97C56.4146 14.21 56.2479 14.4933 56.1279 14.82C56.0079 15.1467 55.9479 15.5067 55.9479 15.9C55.9612 16.2933 56.0179 16.6567 56.1179 16.99C56.2246 17.3233 56.3812 17.61 56.5879 17.85C56.7946 18.09 57.0479 18.2767 57.3479 18.41C57.6546 18.5433 58.0146 18.61 58.4279 18.61C59.0146 18.61 59.5012 18.4633 59.8879 18.17C60.2746 17.8767 60.5246 17.44 60.6379 16.86ZM62.779 13.33V11.78H61.929V13.33H61.049V14.08H61.929V17.37C61.929 17.61 61.9523 17.8033 61.999 17.95C62.0457 18.0967 62.1157 18.21 62.209 18.29C62.309 18.37 62.4357 18.4267 62.589 18.46C62.749 18.4867 62.939 18.5 63.159 18.5H63.809V17.75H63.419C63.2857 17.75 63.1757 17.7467 63.089 17.74C63.009 17.7267 62.9457 17.7033 62.899 17.67C62.8523 17.6367 62.819 17.59 62.799 17.53C62.7857 17.47 62.779 17.39 62.779 17.29V14.08H63.809V13.33H62.779ZM68.4365 12.4V11.36H67.5865V12.4H68.4365ZM67.5865 13.33V18.5H68.4365V13.33H67.5865ZM70.9333 13.33V11.78H70.0833V13.33H69.2033V14.08H70.0833V17.37C70.0833 17.61 70.1066 17.8033 70.1533 17.95C70.1999 18.0967 70.2699 18.21 70.3633 18.29C70.4633 18.37 70.5899 18.4267 70.7433 18.46C70.9033 18.4867 71.0933 18.5 71.3133 18.5H71.9633V17.75H71.5733C71.4399 17.75 71.3299 17.7467 71.2433 17.74C71.1633 17.7267 71.0999 17.7033 71.0533 17.67C71.0066 17.6367 70.9733 17.59 70.9533 17.53C70.9399 17.47 70.9333 17.39 70.9333 17.29V14.08H71.9633V13.33H70.9333ZM76.3808 14.93C76.3808 14.57 76.4274 14.2167 76.5208 13.87C76.6141 13.5167 76.7608 13.2 76.9608 12.92C77.1608 12.64 77.4174 12.4167 77.7308 12.25C78.0441 12.0767 78.4174 11.99 78.8508 11.99C79.2841 11.99 79.6574 12.0767 79.9708 12.25C80.2841 12.4167 80.5408 12.64 80.7408 12.92C80.9408 13.2 81.0874 13.5167 81.1808 13.87C81.2741 14.2167 81.3208 14.57 81.3208 14.93C81.3208 15.29 81.2741 15.6467 81.1808 16C81.0874 16.3467 80.9408 16.66 80.7408 16.94C80.5408 17.22 80.2841 17.4467 79.9708 17.62C79.6574 17.7867 79.2841 17.87 78.8508 17.87C78.4174 17.87 78.0441 17.7867 77.7308 17.62C77.4174 17.4467 77.1608 17.22 76.9608 16.94C76.7608 16.66 76.6141 16.3467 76.5208 16C76.4274 15.6467 76.3808 15.29 76.3808 14.93ZM75.4308 14.93C75.4308 15.4167 75.5008 15.8867 75.6408 16.34C75.7874 16.7867 76.0041 17.1833 76.2908 17.53C76.5774 17.8767 76.9341 18.1533 77.3608 18.36C77.7874 18.56 78.2841 18.66 78.8508 18.66C79.4174 18.66 79.9141 18.56 80.3408 18.36C80.7674 18.1533 81.1241 17.8767 81.4108 17.53C81.6974 17.1833 81.9108 16.7867 82.0508 16.34C82.1974 15.8867 82.2708 15.4167 82.2708 14.93C82.2708 14.4433 82.1974 13.9767 82.0508 13.53C81.9108 13.0767 81.6974 12.6767 81.4108 12.33C81.1241 11.9833 80.7674 11.7067 80.3408 11.5C79.9141 11.2933 79.4174 11.19 78.8508 11.19C78.2841 11.19 77.7874 11.2933 77.3608 11.5C76.9341 11.7067 76.5774 11.9833 76.2908 12.33C76.0041 12.6767 75.7874 13.0767 75.6408 13.53C75.5008 13.9767 75.4308 14.4433 75.4308 14.93ZM83.2884 13.33V18.5H84.1384V15.58C84.1384 15.3467 84.1684 15.1333 84.2284 14.94C84.2951 14.74 84.3918 14.5667 84.5184 14.42C84.6451 14.2733 84.8018 14.16 84.9884 14.08C85.1818 14 85.4084 13.96 85.6684 13.96C85.9951 13.96 86.2518 14.0533 86.4384 14.24C86.6251 14.4267 86.7184 14.68 86.7184 15V18.5H87.5684V15.1C87.5684 14.82 87.5384 14.5667 87.4784 14.34C87.4251 14.1067 87.3284 13.9067 87.1884 13.74C87.0484 13.5733 86.8651 13.4433 86.6384 13.35C86.4118 13.2567 86.1284 13.21 85.7884 13.21C85.0218 13.21 84.4618 13.5233 84.1084 14.15H84.0884V13.33H83.2884Z" fill="white"/>
<path d="M57.786 34.5H56.666L56.4 33.324C55.9333 33.856 55.4667 34.2247 55 34.43C54.5333 34.6353 53.9967 34.738 53.39 34.738C52.6433 34.738 51.9713 34.6027 51.374 34.332C50.786 34.052 50.2867 33.674 49.876 33.198C49.4653 32.722 49.148 32.1667 48.924 31.532C48.7093 30.8973 48.602 30.2207 48.602 29.502C48.602 28.7927 48.7093 28.1207 48.924 27.486C49.148 26.8513 49.4653 26.296 49.876 25.82C50.2867 25.344 50.786 24.966 51.374 24.686C51.9713 24.406 52.6433 24.266 53.39 24.266C53.9313 24.266 54.4447 24.3407 54.93 24.49C55.4247 24.63 55.8633 24.8447 56.246 25.134C56.6287 25.414 56.946 25.7687 57.198 26.198C57.45 26.6273 57.6087 27.122 57.674 27.682H55.966C55.9193 27.3553 55.8167 27.0707 55.658 26.828C55.5087 26.576 55.3173 26.366 55.084 26.198C54.8507 26.03 54.5893 25.904 54.3 25.82C54.0107 25.736 53.7073 25.694 53.39 25.694C52.858 25.694 52.396 25.8013 52.004 26.016C51.6213 26.2307 51.3087 26.52 51.066 26.884C50.8233 27.2387 50.6413 27.6447 50.52 28.102C50.408 28.5593 50.352 29.026 50.352 29.502C50.352 29.978 50.408 30.4447 50.52 30.902C50.6413 31.3593 50.8233 31.77 51.066 32.134C51.3087 32.4887 51.6213 32.7733 52.004 32.988C52.396 33.2027 52.858 33.31 53.39 33.31C53.838 33.3193 54.2347 33.2633 54.58 33.142C54.9253 33.0113 55.2147 32.8293 55.448 32.596C55.6907 32.3533 55.8727 32.0593 55.994 31.714C56.1153 31.3687 56.1807 30.986 56.19 30.566H53.53V29.236H57.786V34.5ZM62.781 34.696C62.2024 34.696 61.6844 34.6027 61.227 34.416C60.779 34.22 60.3964 33.954 60.079 33.618C59.771 33.282 59.533 32.8807 59.365 32.414C59.2064 31.9473 59.127 31.434 59.127 30.874C59.127 30.3233 59.2064 29.8147 59.365 29.348C59.533 28.8813 59.771 28.48 60.079 28.144C60.3964 27.808 60.779 27.5467 61.227 27.36C61.6844 27.164 62.2024 27.066 62.781 27.066C63.3597 27.066 63.873 27.164 64.321 27.36C64.7784 27.5467 65.161 27.808 65.469 28.144C65.7864 28.48 66.0244 28.8813 66.183 29.348C66.351 29.8147 66.435 30.3233 66.435 30.874C66.435 31.434 66.351 31.9473 66.183 32.414C66.0244 32.8807 65.7864 33.282 65.469 33.618C65.161 33.954 64.7784 34.22 64.321 34.416C63.873 34.6027 63.3597 34.696 62.781 34.696ZM62.781 33.436C63.1357 33.436 63.4437 33.3613 63.705 33.212C63.9664 33.0627 64.181 32.8667 64.349 32.624C64.517 32.3813 64.6384 32.1107 64.713 31.812C64.797 31.504 64.839 31.1913 64.839 30.874C64.839 30.566 64.797 30.258 64.713 29.95C64.6384 29.642 64.517 29.3713 64.349 29.138C64.181 28.8953 63.9664 28.6993 63.705 28.55C63.4437 28.4007 63.1357 28.326 62.781 28.326C62.4264 28.326 62.1184 28.4007 61.857 28.55C61.5957 28.6993 61.381 28.8953 61.213 29.138C61.045 29.3713 60.919 29.642 60.835 29.95C60.7604 30.258 60.723 30.566 60.723 30.874C60.723 31.1913 60.7604 31.504 60.835 31.812C60.919 32.1107 61.045 32.3813 61.213 32.624C61.381 32.8667 61.5957 33.0627 61.857 33.212C62.1184 33.3613 62.4264 33.436 62.781 33.436ZM71.0799 34.696C70.5012 34.696 69.9832 34.6027 69.5259 34.416C69.0779 34.22 68.6952 33.954 68.3779 33.618C68.0699 33.282 67.8319 32.8807 67.6639 32.414C67.5052 31.9473 67.4259 31.434 67.4259 30.874C67.4259 30.3233 67.5052 29.8147 67.6639 29.348C67.8319 28.8813 68.0699 28.48 68.3779 28.144C68.6952 27.808 69.0779 27.5467 69.5259 27.36C69.9832 27.164 70.5012 27.066 71.0799 27.066C71.6585 27.066 72.1719 27.164 72.6199 27.36C73.0772 27.5467 73.4599 27.808 73.7679 28.144C74.0852 28.48 74.3232 28.8813 74.4819 29.348C74.6499 29.8147 74.7339 30.3233 74.7339 30.874C74.7339 31.434 74.6499 31.9473 74.4819 32.414C74.3232 32.8807 74.0852 33.282 73.7679 33.618C73.4599 33.954 73.0772 34.22 72.6199 34.416C72.1719 34.6027 71.6585 34.696 71.0799 34.696ZM71.0799 33.436C71.4345 33.436 71.7425 33.3613 72.0039 33.212C72.2652 33.0627 72.4799 32.8667 72.6479 32.624C72.8159 32.3813 72.9372 32.1107 73.0119 31.812C73.0959 31.504 73.1379 31.1913 73.1379 30.874C73.1379 30.566 73.0959 30.258 73.0119 29.95C72.9372 29.642 72.8159 29.3713 72.6479 29.138C72.4799 28.8953 72.2652 28.6993 72.0039 28.55C71.7425 28.4007 71.4345 28.326 71.0799 28.326C70.7252 28.326 70.4172 28.4007 70.1559 28.55C69.8945 28.6993 69.6799 28.8953 69.5119 29.138C69.3439 29.3713 69.2179 29.642 69.1339 29.95C69.0592 30.258 69.0219 30.566 69.0219 30.874C69.0219 31.1913 69.0592 31.504 69.1339 31.812C69.2179 32.1107 69.3439 32.3813 69.5119 32.624C69.6799 32.8667 69.8945 33.0627 70.1559 33.212C70.4172 33.3613 70.7252 33.436 71.0799 33.436ZM82.7527 34.122C82.7527 35.214 82.4447 36.026 81.8287 36.558C81.222 37.0993 80.3447 37.37 79.1967 37.37C78.8327 37.37 78.464 37.3327 78.0907 37.258C77.7267 37.1833 77.3907 37.0573 77.0827 36.88C76.784 36.7027 76.532 36.4693 76.3267 36.18C76.1214 35.8907 76 35.536 75.9627 35.116H77.5587C77.6054 35.34 77.6847 35.522 77.7967 35.662C77.9087 35.802 78.0394 35.9093 78.1887 35.984C78.3474 36.068 78.52 36.1193 78.7067 36.138C78.8934 36.166 79.0894 36.18 79.2947 36.18C79.9387 36.18 80.41 36.0213 80.7087 35.704C81.0074 35.3867 81.1567 34.9293 81.1567 34.332V33.226H81.1287C80.9047 33.6273 80.5967 33.94 80.2047 34.164C79.822 34.388 79.4067 34.5 78.9587 34.5C78.38 34.5 77.8854 34.402 77.4747 34.206C77.0734 34.0007 76.7374 33.7253 76.4667 33.38C76.2054 33.0253 76.014 32.6193 75.8927 32.162C75.7714 31.7047 75.7107 31.2147 75.7107 30.692C75.7107 30.2067 75.7854 29.7447 75.9347 29.306C76.084 28.8673 76.2987 28.4847 76.5787 28.158C76.8587 27.822 77.1994 27.556 77.6007 27.36C78.0114 27.164 78.4734 27.066 78.9867 27.066C79.444 27.066 79.864 27.164 80.2467 27.36C80.6294 27.5467 80.9234 27.8453 81.1287 28.256H81.1567V27.262H82.7527V34.122ZM79.2107 33.24C79.5654 33.24 79.864 33.17 80.1067 33.03C80.3587 32.8807 80.5594 32.6893 80.7087 32.456C80.8674 32.2133 80.9794 31.9427 81.0447 31.644C81.1194 31.336 81.1567 31.028 81.1567 30.72C81.1567 30.412 81.1194 30.1133 81.0447 29.824C80.97 29.5347 80.8534 29.278 80.6947 29.054C80.5454 28.83 80.3447 28.6527 80.0927 28.522C79.85 28.3913 79.556 28.326 79.2107 28.326C78.856 28.326 78.5574 28.4007 78.3147 28.55C78.072 28.6993 77.876 28.8953 77.7267 29.138C77.5774 29.3713 77.47 29.642 77.4047 29.95C77.3394 30.2487 77.3067 30.5473 77.3067 30.846C77.3067 31.1447 77.344 31.4387 77.4187 31.728C77.4934 32.008 77.6054 32.26 77.7547 32.484C77.9134 32.708 78.1094 32.89 78.3427 33.03C78.5854 33.17 78.8747 33.24 79.2107 33.24ZM84.4015 24.504H85.9975V34.5H84.4015V24.504ZM92.7065 30.244C92.6878 29.992 92.6318 29.7493 92.5385 29.516C92.4545 29.2827 92.3332 29.082 92.1745 28.914C92.0252 28.7367 91.8385 28.5967 91.6145 28.494C91.3998 28.382 91.1572 28.326 90.8865 28.326C90.6065 28.326 90.3498 28.3773 90.1165 28.48C89.8925 28.5733 89.6965 28.7087 89.5285 28.886C89.3698 29.054 89.2392 29.2547 89.1365 29.488C89.0432 29.7213 88.9918 29.9733 88.9825 30.244H92.7065ZM88.9825 31.294C88.9825 31.574 89.0198 31.8447 89.0945 32.106C89.1785 32.3673 89.2998 32.596 89.4585 32.792C89.6172 32.988 89.8178 33.1467 90.0605 33.268C90.3032 33.38 90.5925 33.436 90.9285 33.436C91.3952 33.436 91.7685 33.338 92.0485 33.142C92.3378 32.9367 92.5525 32.6333 92.6925 32.232H94.2045C94.1205 32.624 93.9758 32.974 93.7705 33.282C93.5652 33.59 93.3178 33.8513 93.0285 34.066C92.7392 34.2713 92.4125 34.4253 92.0485 34.528C91.6938 34.64 91.3205 34.696 90.9285 34.696C90.3592 34.696 89.8552 34.6027 89.4165 34.416C88.9778 34.2293 88.6045 33.968 88.2965 33.632C87.9978 33.296 87.7692 32.8947 87.6105 32.428C87.4612 31.9613 87.3865 31.448 87.3865 30.888C87.3865 30.3747 87.4658 29.8893 87.6245 29.432C87.7925 28.9653 88.0258 28.5593 88.3245 28.214C88.6325 27.8593 89.0012 27.5793 89.4305 27.374C89.8598 27.1687 90.3452 27.066 90.8865 27.066C91.4558 27.066 91.9645 27.1873 92.4125 27.43C92.8698 27.6633 93.2478 27.976 93.5465 28.368C93.8452 28.76 94.0598 29.2127 94.1905 29.726C94.3305 30.23 94.3678 30.7527 94.3025 31.294H88.9825ZM99.6363 24.504H104.046C104.756 24.504 105.334 24.6067 105.782 24.812C106.23 25.0173 106.576 25.274 106.818 25.582C107.061 25.89 107.224 26.226 107.308 26.59C107.402 26.954 107.448 27.29 107.448 27.598C107.448 27.906 107.402 28.242 107.308 28.606C107.224 28.9607 107.061 29.292 106.818 29.6C106.576 29.908 106.23 30.1647 105.782 30.37C105.334 30.566 104.756 30.664 104.046 30.664H101.386V34.5H99.6363V24.504ZM101.386 29.236H103.948C104.144 29.236 104.345 29.208 104.55 29.152C104.756 29.096 104.942 29.0073 105.11 28.886C105.288 28.7553 105.428 28.5873 105.53 28.382C105.642 28.1673 105.698 27.9013 105.698 27.584C105.698 27.2573 105.652 26.9867 105.558 26.772C105.465 26.5573 105.339 26.3893 105.18 26.268C105.022 26.1373 104.84 26.0487 104.634 26.002C104.429 25.9553 104.21 25.932 103.976 25.932H101.386V29.236ZM108.792 24.504H110.388V34.5H108.792V24.504ZM118.189 32.89C118.189 33.086 118.212 33.226 118.259 33.31C118.315 33.394 118.418 33.436 118.567 33.436C118.614 33.436 118.67 33.436 118.735 33.436C118.8 33.436 118.875 33.4267 118.959 33.408V34.514C118.903 34.5327 118.828 34.5513 118.735 34.57C118.651 34.598 118.562 34.6213 118.469 34.64C118.376 34.6587 118.282 34.6727 118.189 34.682C118.096 34.6913 118.016 34.696 117.951 34.696C117.624 34.696 117.354 34.6307 117.139 34.5C116.924 34.3693 116.784 34.1407 116.719 33.814C116.402 34.122 116.01 34.346 115.543 34.486C115.086 34.626 114.642 34.696 114.213 34.696C113.886 34.696 113.574 34.6493 113.275 34.556C112.976 34.472 112.71 34.346 112.477 34.178C112.253 34.0007 112.071 33.7813 111.931 33.52C111.8 33.2493 111.735 32.9367 111.735 32.582C111.735 32.134 111.814 31.77 111.973 31.49C112.141 31.21 112.356 30.9907 112.617 30.832C112.888 30.6733 113.186 30.5613 113.513 30.496C113.849 30.4213 114.185 30.3653 114.521 30.328C114.81 30.272 115.086 30.2347 115.347 30.216C115.608 30.188 115.837 30.146 116.033 30.09C116.238 30.034 116.397 29.95 116.509 29.838C116.63 29.7167 116.691 29.5393 116.691 29.306C116.691 29.1007 116.64 28.9327 116.537 28.802C116.444 28.6713 116.322 28.5733 116.173 28.508C116.033 28.4333 115.874 28.3867 115.697 28.368C115.52 28.34 115.352 28.326 115.193 28.326C114.745 28.326 114.376 28.4193 114.087 28.606C113.798 28.7927 113.634 29.082 113.597 29.474H112.001C112.029 29.0073 112.141 28.62 112.337 28.312C112.533 28.004 112.78 27.7567 113.079 27.57C113.387 27.3833 113.732 27.2527 114.115 27.178C114.498 27.1033 114.89 27.066 115.291 27.066C115.646 27.066 115.996 27.1033 116.341 27.178C116.686 27.2527 116.994 27.374 117.265 27.542C117.545 27.71 117.769 27.9293 117.937 28.2C118.105 28.4613 118.189 28.7833 118.189 29.166V32.89ZM116.593 30.874C116.35 31.0327 116.052 31.1307 115.697 31.168C115.342 31.196 114.988 31.2427 114.633 31.308C114.465 31.336 114.302 31.378 114.143 31.434C113.984 31.4807 113.844 31.5507 113.723 31.644C113.602 31.728 113.504 31.8447 113.429 31.994C113.364 32.134 113.331 32.3067 113.331 32.512C113.331 32.6893 113.382 32.8387 113.485 32.96C113.588 33.0813 113.709 33.1793 113.849 33.254C113.998 33.3193 114.157 33.366 114.325 33.394C114.502 33.422 114.661 33.436 114.801 33.436C114.978 33.436 115.17 33.4127 115.375 33.366C115.58 33.3193 115.772 33.24 115.949 33.128C116.136 33.016 116.29 32.876 116.411 32.708C116.532 32.5307 116.593 32.316 116.593 32.064V30.874ZM119.108 27.262H120.858L122.748 32.666H122.776L124.61 27.262H126.276L123.462 34.892C123.332 35.2187 123.201 35.5313 123.07 35.83C122.949 36.1287 122.795 36.39 122.608 36.614C122.431 36.8473 122.207 37.0293 121.936 37.16C121.666 37.3 121.32 37.37 120.9 37.37C120.527 37.37 120.158 37.342 119.794 37.286V35.942C119.925 35.9607 120.051 35.9793 120.172 35.998C120.294 36.026 120.42 36.04 120.55 36.04C120.737 36.04 120.891 36.0167 121.012 35.97C121.134 35.9233 121.232 35.8533 121.306 35.76C121.39 35.676 121.46 35.5733 121.516 35.452C121.572 35.3307 121.624 35.1907 121.67 35.032L121.852 34.472L119.108 27.262Z" fill="white"/>
<defs>
<filter id="filter0_ii_702_31" x="18" y="13" width="19.9999" height="20" filterUnits="userSpaceOnUse" color-interpolation-filters="sRGB">
<feFlood flood-opacity="0" result="BackgroundImageFix"/>
<feBlend mode="normal" in="SourceGraphic" in2="BackgroundImageFix" result="shape"/>
<feColorMatrix in="SourceAlpha" type="matrix" values="0 0 0 0 0 0 0 0 0 0 0 0 0 0 0 0 0 0 127 0" result="hardAlpha"/>
<feOffset dy="-0.12"/>
<feComposite in2="hardAlpha" operator="arithmetic" k2="-1" k3="1"/>
<feColorMatrix type="matrix" values="0 0 0 0 0 0 0 0 0 0 0 0 0 0 0 0 0 0 0.12 0"/>
<feBlend mode="normal" in2="shape" result="effect1_innerShadow_702_31"/>
<feColorMatrix in="SourceAlpha" type="matrix" values="0 0 0 0 0 0 0 0 0 0 0 0 0 0 0 0 0 0 127 0" result="hardAlpha"/>
<feOffset dy="0.12"/>
<feComposite in2="hardAlpha" operator="arithmetic" k2="-1" k3="1"/>
<feColorMatrix type="matrix" values="0 0 0 0 1 0 0 0 0 1 0 0 0 0 1 0 0 0 0.25 0"/>
<feBlend mode="normal" in2="effect1_innerShadow_702_31" result="effect2_innerShadow_702_31"/>
</filter>
<filter id="filter1_i_702_31" x="18.4007" y="22.9998" width="14.4532" height="10.0002" filterUnits="userSpaceOnUse" color-interpolation-filters="sRGB">
<feFlood flood-opacity="0" result="BackgroundImageFix"/>
<feBlend mode="normal" in="SourceGraphic" in2="BackgroundImageFix" result="shape"/>
<feColorMatrix in="SourceAlpha" type="matrix" values="0 0 0 0 0 0 0 0 0 0 0 0 0 0 0 0 0 0 127 0" result="hardAlpha"/>
<feOffset dy="-0.12"/>
<feComposite in2="hardAlpha" operator="arithmetic" k2="-1" k3="1"/>
<feColorMatrix type="matrix" values="0 0 0 0 0 0 0 0 0 0 0 0 0 0 0 0 0 0 0.08 0"/>
<feBlend mode="normal" in2="shape" result="effect1_innerShadow_702_31"/>
</filter>
<linearGradient id="paint0_linear_702_31" x1="28.2451" y1="14.2192" x2="15.2714" y2="28.6712" gradientUnits="userSpaceOnUse">
<stop stop-color="#00A0FF"/>
<stop offset="0.0066" stop-color="#00A1FF"/>
<stop offset="0.2601" stop-color="#00BEFF"/>
<stop offset="0.5122" stop-color="#00D2FF"/>
<stop offset="0.7604" stop-color="#00DFFF"/>
<stop offset="1" stop-color="#00E3FF"/>
</linearGradient>
<linearGradient id="paint1_linear_702_31" x1="38.6676" y1="22.9996" x2="17.7094" y2="22.9996" gradientUnits="userSpaceOnUse">
<stop stop-color="#FFE000"/>
<stop offset="0.4087" stop-color="#FFBD00"/>
<stop offset="0.7754" stop-color="#FFA500"/>
<stop offset="1" stop-color="#FF9C00"/>
</linearGradient>
<linearGradient id="paint2_linear_702_31" x1="30.8669" y1="24.7835" x2="13.273" y2="44.3823" gradientUnits="userSpaceOnUse">
<stop stop-color="#FF3A44"/>
<stop offset="1" stop-color="#C31162"/>
</linearGradient>
<linearGradient id="paint3_linear_702_31" x1="15.6821" y1="7.58486" x2="23.5383" y2="16.3363" gradientUnits="userSpaceOnUse">
<stop stop-color="#32A071"/>
<stop offset="0.0685" stop-color="#2DA771"/>
<stop offset="0.4762" stop-color="#15CF74"/>
<stop offset="0.8009" stop-color="#06E775"/>
<stop offset="1" stop-color="#00F076"/>
</linearGradient>
</defs>
</svg>
